HIERARCHY
ROOT Root
{
  OFFSET 0.0 0.0 0.0
  CHANNELS 6 Xposition Yposition Zposition Zrotation Yrotation Xrotation
  JOINT Hips
  {
    OFFSET 0.0 100.0 0.0
    CHANNELS 6 Xposition Yposition Zposition Zrotation Yrotation Xrotation
    JOINT Spine1
    {
      OFFSET 5.003913 -0.037094 -0.013727
      CHANNELS 3 Zrotation Yrotation Xrotation
      JOINT Spine2
      {
        OFFSET 7.125363 -1e-06 0.0
        CHANNELS 3 Zrotation Yrotation Xrotation
        JOINT Chest
        {
          OFFSET 7.594027 1e-06 0.0
          CHANNELS 3 Zrotation Yrotation Xrotation
          JOINT Neck1
          {
            OFFSET 26.313086 -0.460272 -0.181672
            CHANNELS 3 Zrotation Yrotation Xrotation
            JOINT Neck2
            {
              OFFSET 8.045911 0.0 0.0
              CHANNELS 3 Zrotation Yrotation Xrotation
              JOINT Head
              {
                OFFSET 6.432774 0.0 0.0
                CHANNELS 3 Zrotation Yrotation Xrotation
                JOINT HeadEnd
                {
                  OFFSET 16.169773 0.06451 0.00362
                  CHANNELS 3 Zrotation Yrotation Xrotation
                }
                JOINT Jaw
                {
                  OFFSET 0.108741 3.12938 0.002639
                  CHANNELS 3 Zrotation Yrotation Xrotation
                }
                JOINT LeftEye
                {
                  OFFSET 4.45173 8.166359 3.206392
                  CHANNELS 3 Zrotation Yrotation Xrotation
                }
                JOINT RightEye
                {
                  OFFSET 4.436895 8.135758 -3.222429
                  CHANNELS 3 Zrotation Yrotation Xrotation
                }
              }
            }
          }
          JOINT LeftShoulder
          {
            OFFSET 23.218927 5.195579 1.621656
            CHANNELS 3 Zrotation Yrotation Xrotation
            JOINT LeftArm
            {
              OFFSET 15.902118 2e-06 -2e-06
              CHANNELS 3 Zrotation Yrotation Xrotation
              JOINT LeftForeArm
              {
                OFFSET 28.739307 0.0 -1e-06
                CHANNELS 3 Zrotation Yrotation Xrotation
                JOINT LeftHand
                {
                  OFFSET 27.093981 -4e-06 0.0
                  CHANNELS 3 Zrotation Yrotation Xrotation
                  JOINT LeftHandThumb1
                  {
                    OFFSET 2.276781 3.380274 0.83384
                    CHANNELS 3 Zrotation Yrotation Xrotation
                    JOINT LeftHandThumb2
                    {
                      OFFSET 4.705309 -1e-06 -1e-06
                      CHANNELS 3 Zrotation Yrotation Xrotation
                      JOINT LeftHandThumb3
                      {
                        OFFSET 2.798515 0.0 3e-06
                        CHANNELS 3 Zrotation Yrotation Xrotation
                        JOINT LeftHandThumbEnd
                        {
                          OFFSET 3.180793 4e-06 -4e-06
                          CHANNELS 3 Zrotation Yrotation Xrotation
                        }
                      }
                    }
                  }
                  JOINT LeftHandIndex1
                  {
                    OFFSET 3.247786 2.352677 0.137192
                    CHANNELS 3 Zrotation Yrotation Xrotation
                    JOINT LeftHandIndex2
                    {
                      OFFSET 6.367095 1e-06 0.0
                      CHANNELS 3 Zrotation Yrotation Xrotation
                      JOINT LeftHandIndex3
                      {
                        OFFSET 3.662364 0.0 0.0
                        CHANNELS 3 Zrotation Yrotation Xrotation
                        JOINT LeftHandIndex4
                        {
                          OFFSET 2.329242 4e-06 -4e-06
                          CHANNELS 3 Zrotation Yrotation Xrotation
                          JOINT LeftHandIndexEnd
                          {
                            OFFSET 2.767823 1e-06 0.0
                            CHANNELS 3 Zrotation Yrotation Xrotation
                          }
                        }
                      }
                    }
                  }
                  JOINT LeftHandMiddle1
                  {
                    OFFSET 3.163612 0.945023 -0.406112
                    CHANNELS 3 Zrotation Yrotation Xrotation
                    JOINT LeftHandMiddle2
                    {
                      OFFSET 6.276789 3e-06 0.0
                      CHANNELS 3 Zrotation Yrotation Xrotation
                      JOINT LeftHandMiddle3
                      {
                        OFFSET 4.35652 -1e-06 4e-06
                        CHANNELS 3 Zrotation Yrotation Xrotation
                        JOINT LeftHandMiddle4
                        {
                          OFFSET 2.996877 0.0 8e-06
                          CHANNELS 3 Zrotation Yrotation Xrotation
                          JOINT LeftHandMiddleEnd
                          {
                            OFFSET 2.323256 3e-06 -4e-06
                            CHANNELS 3 Zrotation Yrotation Xrotation
                          }
                        }
                      }
                    }
                  }
                  JOINT LeftHandRing1
                  {
                    OFFSET 2.882606 -0.309162 0.107445
                    CHANNELS 3 Zrotation Yrotation Xrotation
                    JOINT LeftHandRing2
                    {
                      OFFSET 6.033198 0.0 4e-06
                      CHANNELS 3 Zrotation Yrotation Xrotation
                      JOINT LeftHandRing3
                      {
                        OFFSET 4.350578 3e-06 0.0
                        CHANNELS 3 Zrotation Yrotation Xrotation
                        JOINT LeftHandRing4
                        {
                          OFFSET 2.651321 2e-06 -7e-06
                          CHANNELS 3 Zrotation Yrotation Xrotation
                          JOINT LeftHandRingEnd
                          {
                            OFFSET 1.937663 1e-06 -4e-06
                            CHANNELS 3 Zrotation Yrotation Xrotation
                          }
                        }
                      }
                    }
                  }
                  JOINT LeftHandPinky1
                  {
                    OFFSET 2.865315 -1.525436 0.575687
                    CHANNELS 3 Zrotation Yrotation Xrotation
                    JOINT LeftHandPinky2
                    {
                      OFFSET 5.54936 1e-06 -8e-06
                      CHANNELS 3 Zrotation Yrotation Xrotation
                      JOINT LeftHandPinky3
                      {
                        OFFSET 3.070974 0.0 -4e-06
                        CHANNELS 3 Zrotation Yrotation Xrotation
                        JOINT LeftHandPinky4
                        {
                          OFFSET 1.549672 1e-06 0.0
                          CHANNELS 3 Zrotation Yrotation Xrotation
                          JOINT LeftHandPinkyEnd
                          {
                            OFFSET 1.952123 0.0 0.0
                            CHANNELS 3 Zrotation Yrotation Xrotation
                          }
                        }
                      }
                    }
                  }
                }
              }
            }
          }
          JOINT RightShoulder
          {
            OFFSET 23.161716 5.296122 -1.380114
            CHANNELS 3 Zrotation Yrotation Xrotation
            JOINT RightArm
            {
              OFFSET -16.027195 -2e-06 1.1e-05
              CHANNELS 3 Zrotation Yrotation Xrotation
              JOINT RightForeArm
              {
                OFFSET -28.736639 4e-06 2e-06
                CHANNELS 3 Zrotation Yrotation Xrotation
                JOINT RightHand
                {
                  OFFSET -27.133619 6e-06 0.0
                  CHANNELS 3 Zrotation Yrotation Xrotation
                  JOINT RightHandThumb1
                  {
                    OFFSET -2.274328 -3.351035 -0.83067
                    CHANNELS 3 Zrotation Yrotation Xrotation
                    JOINT RightHandThumb2
                    {
                      OFFSET -4.703594 -3e-06 2e-06
                      CHANNELS 3 Zrotation Yrotation Xrotation
                      JOINT RightHandThumb3
                      {
                        OFFSET -2.794935 -4e-06 -3e-06
                        CHANNELS 3 Zrotation Yrotation Xrotation
                        JOINT RightHandThumbEnd
                        {
                          OFFSET -3.183852 4e-06 1e-06
                          CHANNELS 3 Zrotation Yrotation Xrotation
                        }
                      }
                    }
                  }
                  JOINT RightHandIndex1
                  {
                    OFFSET -3.253496 -2.33755 -0.127667
                    CHANNELS 3 Zrotation Yrotation Xrotation
                    JOINT RightHandIndex2
                    {
                      OFFSET -6.344434 0.0 0.0
                      CHANNELS 3 Zrotation Yrotation Xrotation
                      JOINT RightHandIndex3
                      {
                        OFFSET -3.654871 0.0 -8e-06
                        CHANNELS 3 Zrotation Yrotation Xrotation
                        JOINT RightHandIndex4
                        {
                          OFFSET -2.327586 -1e-06 0.0
                          CHANNELS 3 Zrotation Yrotation Xrotation
                          JOINT RightHandIndexEnd
                          {
                            OFFSET -2.770001 3e-06 8e-06
                            CHANNELS 3 Zrotation Yrotation Xrotation
                          }
                        }
                      }
                    }
                  }
                  JOINT RightHandMiddle1
                  {
                    OFFSET -3.168223 -0.944764 0.411762
                    CHANNELS 3 Zrotation Yrotation Xrotation
                    JOINT RightHandMiddle2
                    {
                      OFFSET -6.266691 -1e-06 -4e-06
                      CHANNELS 3 Zrotation Yrotation Xrotation
                      JOINT RightHandMiddle3
                      {
                        OFFSET -4.348901 0.0 0.0
                        CHANNELS 3 Zrotation Yrotation Xrotation
                        JOINT RightHandMiddle4
                        {
                          OFFSET -3.00024 2e-06 -4e-06
                          CHANNELS 3 Zrotation Yrotation Xrotation
                          JOINT RightHandMiddleEnd
                          {
                            OFFSET -2.321477 -4e-06 -4e-06
                            CHANNELS 3 Zrotation Yrotation Xrotation
                          }
                        }
                      }
                    }
                  }
                  JOINT RightHandRing1
                  {
                    OFFSET -2.885654 0.293261 -0.119232
                    CHANNELS 3 Zrotation Yrotation Xrotation
                    JOINT RightHandRing2
                    {
                      OFFSET -6.032835 -1e-06 -4e-06
                      CHANNELS 3 Zrotation Yrotation Xrotation
                      JOINT RightHandRing3
                      {
                        OFFSET -4.33881 0.0 -4e-06
                        CHANNELS 3 Zrotation Yrotation Xrotation
                        JOINT RightHandRing4
                        {
                          OFFSET -2.654903 -4e-06 -4e-06
                          CHANNELS 3 Zrotation Yrotation Xrotation
                          JOINT RightHandRingEnd
                          {
                            OFFSET -1.935122 0.0 4e-06
                            CHANNELS 3 Zrotation Yrotation Xrotation
                          }
                        }
                      }
                    }
                  }
                  JOINT RightHandPinky1
                  {
                    OFFSET -2.866241 1.503904 -0.60527
                    CHANNELS 3 Zrotation Yrotation Xrotation
                    JOINT RightHandPinky2
                    {
                      OFFSET -5.553177 -2e-06 0.0
                      CHANNELS 3 Zrotation Yrotation Xrotation
                      JOINT RightHandPinky3
                      {
                        OFFSET -3.062664 -1e-06 -4e-06
                        CHANNELS 3 Zrotation Yrotation Xrotation
                        JOINT RightHandPinky4
                        {
                          OFFSET -1.546529 2e-06 4e-06
                          CHANNELS 3 Zrotation Yrotation Xrotation
                          JOINT RightHandPinkyEnd
                          {
                            OFFSET -1.952341 0.0 -4e-06
                            CHANNELS 3 Zrotation Yrotation Xrotation
                          }
                        }
                      }
                    }
                  }
                }
              }
            }
          }
        }
      }
    }
    JOINT LeftLeg
    {
      OFFSET -8.443107 2.567604 10.043214
      CHANNELS 3 Zrotation Yrotation Xrotation
      JOINT LeftShin
      {
        OFFSET 43.229198 1e-06 -1e-06
        CHANNELS 3 Zrotation Yrotation Xrotation
        JOINT LeftFoot
        {
          OFFSET 42.298611 1e-06 1e-06
          CHANNELS 3 Zrotation Yrotation Xrotation
          JOINT LeftToeBase
          {
            OFFSET 14.165858 1e-06 0.0
            CHANNELS 3 Zrotation Yrotation Xrotation
            JOINT LeftToeEnd
            {
              OFFSET 6.7141 -0.234461 0.0
              CHANNELS 3 Zrotation Yrotation Xrotation
            }
          }
        }
      }
    }
    JOINT RightLeg
    {
      OFFSET -8.303923 2.592729 -10.047278
      CHANNELS 3 Zrotation Yrotation Xrotation
      JOINT RightShin
      {
        OFFSET -43.369682 0.0 1e-06
        CHANNELS 3 Zrotation Yrotation Xrotation
        JOINT RightFoot
        {
          OFFSET -42.260784 4e-06 2e-06
          CHANNELS 3 Zrotation Yrotation Xrotation
          JOINT RightToeBase
          {
            OFFSET -14.222245 -2e-06 -1e-06
            CHANNELS 3 Zrotation Yrotation Xrotation
            JOINT RightToeEnd
            {
              OFFSET -6.660062 0.232574 -2e-06
              CHANNELS 3 Zrotation Yrotation Xrotation
            }
          }
        }
      }
    }
  }
}
MOTION
Frames: 4
Frame Time: 0.03333333333333333
0.0 0.0 0.0 0.0 -0.0 0.0 -44.830605 95.70369 313.029846 91.23867 1.317637 80.824554 0.824954 -1.501976 -0.483881 -10.391525 -1.342283 -2.096318 16.865183 0.19205 -4.297349 17.662222 1.433204 3.386761 -2.914361 -0.679497 3.417102 -40.02029 1.154349 4.174604 0.006573 -0.000109 -0.000207 0.007867 0.019771 -0.071719 -0.000335 -0.008422 -0.032886 0.004571 0.04335 -0.100432 -119.965714 -74.510437 137.746811 41.224216 -58.263237 -18.958389 26.133842 -0.144372 -0.33775 1.331613 13.4785 9.427556 17.608215 -26.288153 52.403606 -19.413094 -14.35354 29.364561 0.002301 -8.757458 -0.004334 15.54025 -18.232611 6.715332 -0.604975 -1.794244 -3.890844 -4.818919 -11.035275 -2.917026 -0.004193 -20.939617 -0.008245 -5.037037 -25.010452 -4.025928 -0.002525 -0.011843 0.006206 -10.615126 -5.683874 -3.552776 10.54306 -17.869432 -3.119434 -0.011459 -13.790237 0.020771 -0.500221 -31.106089 -4.023394 -12.604939 -59.964867 8.801209 -13.958558 -7.142063 -2.8782 13.736588 -8.381614 -3.200976 0.342196 -34.12611 0.769514 -0.981233 -17.6971 2.643956 -0.008428 0.00999 0.010415 -17.308302 -20.065939 -4.218832 21.702682 -1.634376 3.893464 -0.002431 -6.326644 -0.012897 -1.69115 -22.558075 -6.195277 -0.005169 0.00409 0.012793 42.479084 -64.297165 160.49025 29.30283 -58.267654 -1.472475 10.754159 -0.033126 -0.0873 -7.027769 8.704913 1.522778 22.174501 -20.371141 49.909996 -16.681213 -16.731173 28.452591 -0.000701 -12.692217 -0.000337 16.678617 -18.135466 2.455645 -0.097801 -1.515588 -4.271842 -5.048299 -5.609788 -2.951074 0.001983 -11.015776 0.002208 -6.125055 -15.907736 -3.840741 -0.002889 0.005636 -0.006306 -10.281708 -5.677875 -4.332119 11.02634 -11.289619 -2.37488 -1.390742 -14.225677 -6.311092 -0.628597 -26.883715 -3.813594 -4.510824 -50.637737 -3.474333 -13.707181 -7.361784 -3.715219 18.144302 -14.03786 -3.244441 -0.001872 -18.795143 0.001373 -0.433225 -8.448236 2.554309 -0.002296 -6.2e-05 -0.002283 -15.919204 -20.090218 -5.469172 30.425301 -7.190885 1.735079 -0.000645 -8.162198 0.001924 -1.862323 -22.847134 -6.16816 0.00325 -0.010116 -0.000916 -158.395401 3.586753 -9.167533 10.975546 -0.144414 0.133683 -81.742615 2.209397 -1.445598 -17.885271 1.836708 1.981535 -0.988361 0.000614 2e-06 -22.839907 1.210496 -4.13799 4.80068 0.264291 0.634805 -72.298859 -4.619959 -11.373255 -12.604208 0.994528 1.524396 -0.99847 -0.003854 -0.002142 
0.0 0.0 0.0 0.0 -0.0 0.0 -46.38446 95.714081 318.561523 88.601318 0.1864 80.789795 -0.202188 0.430556 -0.34629 -10.813844 -1.138599 -2.255925 16.994036 0.884153 -4.094285 17.578032 0.908059 3.234088 -2.945201 -0.632583 3.492044 -38.910118 1.323173 3.99312 -0.004588 -4e-06 -0.001684 -0.008611 0.048769 -0.01707 -0.019979 0.008063 0.001067 -0.004624 0.085415 -0.023254 -127.017532 -72.805344 144.632446 37.768215 -57.068367 -17.636068 27.445663 -0.367289 -0.338808 2.55774 13.901451 9.681139 17.642828 -26.371365 52.531364 -19.450064 -14.408135 29.436211 0.012514 -8.780156 0.007459 15.568308 -18.200783 6.567059 -0.612172 -1.796322 -3.893224 -4.82509 -11.046806 -2.930519 -0.015889 -20.986422 0.006138 -5.026976 -25.059494 -4.020501 -0.002959 0.002522 0.010245 -10.648783 -5.686857 -3.550719 10.560931 -17.915108 -3.119305 -0.005667 -13.81885 0.004838 -0.517833 -31.168217 -4.03985 -12.083392 -59.747673 8.289784 -14.007765 -7.161736 -2.866544 13.782204 -8.386378 -3.217299 0.305831 -34.218021 0.791124 -0.983912 -17.747091 2.630453 -0.000202 0.018319 -0.003968 -17.389555 -20.108339 -4.196701 21.788406 -1.620268 3.874029 -0.00956 -6.341933 0.017327 -1.718228 -22.561306 -6.205162 0.002154 0.002337 -0.011488 40.354321 -62.997303 162.883606 27.156263 -56.554714 0.804581 10.060258 -0.123563 -0.029683 -7.918032 8.454767 1.250503 22.196688 -20.310995 49.929638 -16.69698 -16.752066 28.460403 0.00382 -12.71801 -0.00362 16.894457 -18.003618 2.260361 -0.089382 -1.516047 -4.276332 -5.053641 -5.610417 -2.954895 -0.003974 -11.012623 -0.002806 -6.124995 -15.890707 -3.851069 0.005816 0.005655 0.003974 -10.276239 -5.679866 -4.33499 11.021361 -11.274126 -2.377962 -1.391766 -14.208233 -6.319606 -0.622339 -26.862484 -3.834292 -4.371196 -50.931637 -3.579316 -13.701142 -7.364046 -3.717315 18.127405 -14.023304 -3.244174 -0.003448 -18.752148 -0.003885 -0.42224 -8.440714 2.553753 -0.001364 -0.014128 -0.001616 -15.937765 -20.08807 -5.471709 30.432489 -7.176461 1.744994 0.0017 -8.135731 -0.004339 -1.867465 -22.836447 -6.168418 0.005244 0.019373 0.000501 -160.020523 -0.691656 -11.873517 18.890926 -0.317149 0.485096 -77.544685 4.173549 -2.077781 -27.439165 2.045352 1.863888 -0.998792 9.1e-05 2.9e-05 -23.03607 4.726217 -3.894227 8.923215 0.192715 0.660054 -65.276794 -4.993921 -7.453329 -11.878569 0.879255 1.569905 -1.00206 -0.00065 -0.000439 
0.0 0.0 0.0 0.0 -0.0 0.0 -47.869389 95.964432 323.985443 86.364746 0.025914 80.02607 -0.53506 1.405428 -0.149525 -10.817966 -0.864525 -2.308116 16.85824 2.016483 -3.92143 17.871038 0.310499 3.109018 -2.944865 -0.63223 3.980648 -38.559494 1.576788 3.842714 -0.004591 0.000475 0.001837 -0.003158 0.068142 0.040185 -0.117296 0.045996 0.00317 -0.09767 0.085298 0.088551 -127.423218 -71.961555 145.072144 36.717712 -58.061718 -18.584019 28.069653 -0.447223 -0.373831 3.613556 14.81611 10.057196 17.629482 -26.323557 52.421886 -19.463932 -14.384432 29.402042 0.000715 -8.76687 -0.001282 15.637927 -18.312235 6.536858 -0.618022 -1.802253 -3.884181 -4.794661 -11.03412 -2.92934 0.008882 -20.970598 0.000853 -5.016905 -25.049805 -4.042565 -0.004954 0.007226 -0.001807 -10.62534 -5.691709 -3.555432 10.573923 -17.914928 -3.104481 0.012579 -13.812959 -0.012292 -0.460783 -31.178339 -4.04227 -12.028331 -59.761978 8.198213 -13.976276 -7.137752 -2.867785 13.77936 -8.396444 -3.213409 0.359538 -34.187759 0.75962 -0.962362 -17.710928 2.61062 0.005221 -0.007226 0.002209 -17.33346 -20.08573 -4.196329 21.750828 -1.634249 3.868643 -0.002662 -6.334854 1.2e-05 -1.695626 -22.548529 -6.186846 0.000973 0.000582 0.017817 40.338936 -63.449451 162.622559 27.332764 -56.454781 1.272727 9.448902 0.149523 0.019896 -8.581647 8.453552 0.908153 22.184008 -20.388994 50.001198 -16.69478 -16.723137 28.5026 0.005027 -12.70028 -0.005525 17.047443 -18.095026 2.228771 -0.106737 -1.515309 -4.278294 -5.047284 -5.608491 -2.959677 0.001001 -11.019738 -0.001571 -6.082868 -15.892336 -3.845658 -0.006516 0.001755 -0.003258 -10.287464 -5.67967 -4.346806 11.021698 -11.295173 -2.372748 -1.378627 -14.226577 -6.323309 -0.629616 -26.882318 -3.827394 -4.653957 -51.266441 -3.074496 -13.706417 -7.36204 -3.731085 18.124144 -14.041762 -3.239336 0.004891 -18.775164 -0.005539 -0.431306 -8.456729 2.55889 0.000376 0.000259 -0.001498 -15.908974 -20.088448 -5.497309 30.370543 -7.187072 1.741158 -0.002483 -8.149961 0.000969 -1.865399 -22.848911 -6.157274 0.005913 0.009978 0.002997 -162.743942 -4.581326 -13.067976 29.489256 -0.453276 0.640142 -68.994431 4.864265 -1.841542 -37.296352 2.285765 1.778889 -0.995916 0.000162 -0.000282 -23.46151 7.722291 -3.494472 16.242937 -0.001275 0.447996 -64.623634 -5.813494 -5.082076 -10.144064 0.712062 1.595004 -0.995224 0.011797 -0.001874 
0.0 0.0 0.0 0.0 -0.0 0.0 -49.308334 96.19854 329.531555 84.982193 1.067887 79.419456 -0.009999 1.664087 -0.04313 -10.632148 -0.677925 -2.256018 16.866154 2.668057 -3.834829 18.671719 0.187404 2.97583 -2.824135 -0.629212 4.176108 -38.881546 1.900065 3.975175 -1.2e-05 -0.000631 -0.000166 0.045135 0.051164 0.008131 -0.092191 0.021359 -0.032817 -0.071467 0.076415 0.057877 -124.940826 -72.439812 143.032516 37.931286 -59.963673 -20.737099 27.836161 -0.151001 -0.292244 4.015244 15.327449 8.717035 17.642626 -26.409531 52.556377 -19.425001 -14.394824 29.413458 0.003176 -8.784579 -0.005166 15.74784 -18.526758 6.487308 -0.604284 -1.802283 -3.892023 -4.809368 -11.039038 -2.943423 -0.005425 -20.966768 0.021488 -5.029855 -25.0105 -4.018675 0.002029 -0.001322 -0.004095 -10.625422 -5.688366 -3.566543 10.563807 -17.919033 -3.111953 0.000725 -13.826818 0.020444 -0.509349 -31.208269 -4.036963 -12.227046 -59.543915 8.103209 -13.978556 -7.155149 -2.881675 13.763816 -8.396293 -3.212343 0.318714 -34.20602 0.792652 -0.989114 -17.720263 2.651006 -0.001085 0.002182 0.003453 -17.358641 -20.107595 -4.209326 21.765917 -1.631909 3.878031 0.006424 -6.336924 0.009606 -1.717673 -22.596827 -6.183138 -0.00284 0.006815 -0.000504 41.906235 -65.136826 161.119141 29.463127 -57.521908 0.087535 9.860065 0.314619 0.044447 -8.693109 9.41267 0.372155 22.195435 -20.406315 50.092876 -16.739445 -16.764685 28.564535 -0.001246 -12.700638 0.002004 17.258301 -17.915962 2.032174 -0.102385 -1.512724 -4.286305 -5.05264 -5.623982 -2.965779 0.007574 -11.030119 -0.009185 -6.126519 -15.915869 -3.856843 0.00599 -0.0 0.001902 -10.290462 -5.684593 -4.355117 11.039214 -11.323939 -2.382092 -1.381288 -14.265642 -6.345169 -0.618094 -26.966009 -3.838283 -4.665033 -51.242519 -3.141687 -13.723233 -7.367195 -3.737689 18.158945 -14.06488 -3.255428 0.0056 -18.803955 -0.004452 -0.426146 -8.435164 2.560705 0.001896 -0.007848 -0.001225 -15.942338 -20.127573 -5.501768 30.459656 -7.193872 1.731517 -0.001492 -8.176146 0.000816 -1.861104 -22.917852 -6.182652 -0.002082 0.010689 -0.002835 -166.498154 -7.481956 -11.986828 41.483429 -0.405643 0.528332 -58.004612 4.89624 -2.11888 -34.418362 2.073033 1.942411 -0.973598 0.000115 -0.000565 -21.542253 9.317395 -3.611635 21.913441 0.123526 0.157926 -68.161896 -6.034733 -1.969006 -8.370371 0.560413 1.595795 -1.001863 -0.00147 -0.000943 
